<svg width="131" height="57" viewBox="0 0 131 57" fill="none" xmlns="http://www.w3.org/2000/svg">
<path d="M2.96 55V0.609999H10.952V55H2.96ZM16.9073 55V0.609999H27.0453L31.4113 28.804L31.7813 31.69H31.9293L32.2993 28.804L36.6653 0.609999H46.8033V55H39.4033V18.518H38.9593L38.6633 20.812L33.9273 55H29.7833L25.0473 20.812L24.7513 18.518H24.3073V55H16.9073ZM63.037 55.592C60.7677 55.592 58.8313 55.0863 57.228 54.075C55.6493 53.039 54.4407 51.633 53.602 49.857C52.788 48.081 52.381 46.0707 52.381 43.826V11.784C52.381 9.564 52.8003 7.566 53.639 5.79C54.5023 4.014 55.7357 2.608 57.339 1.572C58.9423 0.535997 60.8417 0.0179977 63.037 0.0179977C64.6897 0.0179977 66.1697 0.326331 67.477 0.942997C68.7843 1.55966 69.8943 2.41066 70.807 3.496C71.7443 4.55666 72.4597 5.80233 72.953 7.233C73.4464 8.639 73.693 10.156 73.693 11.784V19.258H66.219V11.784C66.219 10.6493 65.9847 9.69966 65.516 8.935C65.0473 8.17033 64.2703 7.788 63.185 7.788C62.1983 7.788 61.483 8.18267 61.039 8.972C60.595 9.76133 60.373 10.6987 60.373 11.784V43.826C60.373 44.9113 60.6073 45.8487 61.076 46.638C61.5693 47.4273 62.2723 47.822 63.185 47.822C64.295 47.822 65.072 47.4397 65.516 46.675C65.9847 45.9103 66.219 44.9607 66.219 43.826V36.352H73.693V43.826C73.693 46.046 73.2613 48.044 72.398 49.82C71.5347 51.596 70.3014 53.002 68.698 54.038C67.1194 55.074 65.2323 55.592 63.037 55.592Z" fill="#CFEFFF"/>
<path d="M131 33.8082C131 33.9528 130.984 34.097 130.951 34.238C130.984 34.7219 131 35.222 131 35.7383C131 48.8726 107 56.2689 107 56.2689C107 56.2689 83 48.8726 83 35.7343C83 35.2207 83.0164 34.7205 83.0491 34.2339C83.0167 34.0943 83.0003 33.9515 83 33.8082V4.6566C83.0011 4.14609 83.2062 3.65679 83.5705 3.2958C83.9348 2.93482 84.4286 2.73154 84.9437 2.73047H129.056C129.571 2.73154 130.065 2.93482 130.429 3.2958C130.794 3.65679 130.999 4.14609 131 4.6566V33.8082ZM121.625 23.4516C121.624 22.9411 121.419 22.4518 121.055 22.0908C120.69 21.7298 120.197 21.5266 119.681 21.5255H111.947V13.8615C111.945 13.3524 111.74 12.8647 111.377 12.5047C111.014 12.1447 110.521 11.9416 110.008 11.9394H103.992C103.477 11.9405 102.983 12.1438 102.619 12.5048C102.255 12.8657 102.05 13.355 102.049 13.8656V21.5255H94.3187C93.8035 21.5266 93.3097 21.7298 92.9454 22.0908C92.5812 22.4518 92.376 22.9411 92.3749 23.4516V29.4125C92.3771 29.9223 92.5827 30.4106 92.9469 30.7707C93.311 31.1308 93.8042 31.3335 94.3187 31.3346H102.053V38.9945C102.054 39.5043 102.258 39.993 102.622 40.3539C102.985 40.7148 103.478 40.9185 103.992 40.9207H110.008C110.523 40.9196 111.017 40.7163 111.381 40.3553C111.745 39.9943 111.95 39.505 111.951 38.9945V31.3346H119.681C120.197 31.3335 120.69 31.1302 121.055 30.7693C121.419 30.4083 121.624 29.919 121.625 29.4085V23.4516Z" fill="#CFEFFF"/>
</svg>
