<svg width="24" height="24" viewBox="0 0 24 24" fill="none" xmlns="http://www.w3.org/2000/svg">
<circle cx="12" cy="12" r="12" fill="black"/>
<g clip-path="url(#clip0_1548_1793)">
<path d="M8.09123 6.31609C7.23827 6.86928 7.07071 8.59846 7.39274 10.0078C7.64354 11.1053 8.17675 12.5775 9.07588 13.9638C9.92171 15.268 11.1018 16.4374 12.0016 17.114C13.1571 17.9828 14.8042 18.535 15.6572 17.9818C16.0885 17.7021 16.7293 16.9379 16.7585 16.8007C16.7585 16.8007 16.3828 16.2214 16.3003 16.0942L15.0402 14.1513C14.9466 14.0069 14.3594 14.1389 14.061 14.3078C13.6586 14.5358 13.288 15.1476 13.288 15.1476C13.0121 15.307 12.781 15.1482 12.2981 14.926C11.7047 14.6529 11.0374 13.8045 10.5064 13.0361C10.0213 12.2378 9.5188 11.2826 9.51152 10.6293C9.50553 10.0978 9.45476 9.82207 9.71286 9.63513C9.71286 9.63513 10.4226 9.54625 10.7949 9.27183C11.0708 9.06836 11.4308 8.58602 11.3372 8.44161L10.0771 6.49871C9.99459 6.37156 9.61883 5.79219 9.61883 5.79219C9.48168 5.76297 8.52254 6.03637 8.09123 6.31609Z" fill="white"/>
</g>
<defs>
<clipPath id="clip0_1548_1793">
<rect width="12.4138" height="12.4138" fill="white" transform="translate(5.79297 5.79004)"/>
</clipPath>
</defs>
</svg>
