<svg width="66" height="66" viewBox="0 0 66 66" fill="none" xmlns="http://www.w3.org/2000/svg">
<circle opacity="0.4" cx="33" cy="33" r="33" fill="#303C9C" fill-opacity="0.29"/>
<path d="M21 33.5003V37.2106C21 41.9429 21 44.3091 22.3291 45.9118C22.5976 46.2355 22.901 46.5304 23.234 46.7914C24.8825 48.0837 27.3162 48.0837 32.1837 48.0837C33.2421 48.0837 33.7712 48.0837 34.2558 47.9174C34.3566 47.8828 34.4553 47.843 34.5518 47.7983C35.0154 47.5826 35.3895 47.2189 36.1378 46.4913L43.2426 39.5839C44.1097 38.7408 44.5432 38.3194 44.7717 37.7833C45 37.2474 45 36.6512 45 35.459V30.5837C45 25.0839 45 22.3341 43.2426 20.6255C41.4853 18.917 38.6568 18.917 33 18.917M34.5 47.3545V46.6253C34.5 42.5006 34.5 40.4382 35.8181 39.1568C37.1361 37.8753 39.2574 37.8753 43.5 37.8753H44.25" stroke="#303C9C" stroke-width="2" stroke-linecap="round" stroke-linejoin="round"/>
<path d="M30 23.292C29.1152 22.407 26.7604 18.917 25.5 18.917C24.2396 18.917 21.8848 22.407 21 23.292M25.5 20.3753V30.5837" stroke="#303C9C" stroke-width="2" stroke-linecap="round" stroke-linejoin="round"/>
</svg>
